<?xml version="1.0" encoding="UTF-8" standalone="no"?>
<svg
   xmlns:dc="http://purl.org/dc/elements/1.1/"
   xmlns:cc="http://creativecommons.org/ns#"
   xmlns:rdf="http://www.w3.org/1999/02/22-rdf-syntax-ns#"
   xmlns:svg="http://www.w3.org/2000/svg"
   xmlns="http://www.w3.org/2000/svg"
   xmlns:sodipodi="http://sodipodi.sourceforge.net/DTD/sodipodi-0.dtd"
   xmlns:inkscape="http://www.inkscape.org/namespaces/inkscape"
   version="1.1"
   id="Layer_1"
   x="0px"
   y="0px"
   viewBox="0 0 330.001 250.001"
   xml:space="preserve"
   sodipodi:docname="email.svg"
   inkscape:version="1.0.1 (3bc2e813f5, 2020-09-07)"
   width="330.00101"
   height="250.00101"><metadata
   id="metadata40"><rdf:RDF><cc:Work
       rdf:about=""><dc:format>image/svg+xml</dc:format><dc:type
         rdf:resource="http://purl.org/dc/dcmitype/StillImage" /><dc:title></dc:title></cc:Work></rdf:RDF></metadata><defs
   id="defs38" /><sodipodi:namedview
   pagecolor="#ffffff"
   bordercolor="#666666"
   borderopacity="1"
   objecttolerance="10"
   gridtolerance="10"
   guidetolerance="10"
   inkscape:pageopacity="0"
   inkscape:pageshadow="2"
   inkscape:window-width="1890"
   inkscape:window-height="998"
   id="namedview36"
   showgrid="false"
   inkscape:zoom="0.99208921"
   inkscape:cx="274.77971"
   inkscape:cy="83.34091"
   inkscape:window-x="15"
   inkscape:window-y="67"
   inkscape:window-maximized="0"
   inkscape:current-layer="Layer_1"
   fit-margin-top="0"
   fit-margin-left="0"
   fit-margin-right="0"
   fit-margin-bottom="0" />
<g
   id="XMLID_348_"
   style="fill:#2e3436"
   transform="translate(0,-40)">
	<path
   id="XMLID_350_"
   d="m 173.871,177.097 c -2.641,1.936 -5.756,2.903 -8.87,2.903 -3.116,0 -6.23,-0.967 -8.871,-2.903 L 30,84.602 0.001,62.603 0,275.001 c 0.001,8.284 6.716,15 15,15 L 315.001,290 c 8.285,0 15,-6.716 15,-14.999 V 62.602 l -30.001,22 z"
   style="fill:#2e3436" />
	<polygon
   id="XMLID_351_"
   points="19.911,40 165.001,146.4 310.087,40.001 "
   style="fill:#2e3436" />
</g>
<g
   id="g5"
   transform="translate(0,-40)">
</g>
<g
   id="g7"
   transform="translate(0,-40)">
</g>
<g
   id="g9"
   transform="translate(0,-40)">
</g>
<g
   id="g11"
   transform="translate(0,-40)">
</g>
<g
   id="g13"
   transform="translate(0,-40)">
</g>
<g
   id="g15"
   transform="translate(0,-40)">
</g>
<g
   id="g17"
   transform="translate(0,-40)">
</g>
<g
   id="g19"
   transform="translate(0,-40)">
</g>
<g
   id="g21"
   transform="translate(0,-40)">
</g>
<g
   id="g23"
   transform="translate(0,-40)">
</g>
<g
   id="g25"
   transform="translate(0,-40)">
</g>
<g
   id="g27"
   transform="translate(0,-40)">
</g>
<g
   id="g29"
   transform="translate(0,-40)">
</g>
<g
   id="g31"
   transform="translate(0,-40)">
</g>
<g
   id="g33"
   transform="translate(0,-40)">
</g>
</svg>
